<svg width="460" height="80" viewBox="0 0 460 80" fill="none" xmlns="http://www.w3.org/2000/svg">
<path d="M0 0H400.736L460 80H0V0Z" fill="#E6E6E6" fill-opacity="0.5"/>
<path d="M0 0H374.601L430 80H0V0Z" fill="#E6E6E6"/>
<path d="M68 53.5V22H95V26.5H99.5V40H95V44.5H77V53.5H68ZM77 40H90.5V26.5H77V40ZM108.5 53.5V49H104V35.5H108.5V31H131V35.5H135.5V49H131V53.5H108.5ZM113 49H126.5V35.5H113V49ZM140 53.5V22H149V40H158V35.5H162.5V31H171.5V35.5H167V40H162.5V44.5H167V49H171.5V53.5H162.5V49H158V44.5H149V53.5H140ZM198.5 26.5H194V22H198.5V26.5ZM207.5 35.5V44.5H185V49H203V53.5H180.5V49H176V35.5H180.5V31H189.5V26.5H194V31H203V35.5H207.5ZM198.5 35.5H185V40H198.5V35.5ZM216.5 53.5V49H212V35.5H216.5V31H234.5V22H243.5V53.5H216.5ZM221 49H234.5V35.5H221V49ZM252.5 53.5V49H248V35.5H252.5V31H275V35.5H279.5V44.5H257V49H275V53.5H252.5ZM257 40H270.5V35.5H257V40ZM284 53.5V49H288.5V44.5H293V40H288.5V35.5H284V31H293V35.5H297.5V40H302V35.5H306.5V31H315.5V35.5H311V40H306.5V44.5H311V49H315.5V53.5H306.5V49H302V44.5H297.5V49H293V53.5H284Z" fill="#4D4D4D"/>
</svg>
